<svg xmlns="http://www.w3.org/2000/svg" viewBox="0 0 1152 1542" role="img" aria-label="Speed Tech Solutions"><g transform="translate(0.000000,1542.000000) scale(0.100000,-0.100000)"
 stroke="none" fill="currentColor"><path d="M5700 15195 c-7 -8 -20 -15 -30 -15 -10 0 -23 -7 -30 -15 -7 -8 -20
-15 -30 -15 -10 0 -23 -7 -30 -15 -7 -8 -20 -15 -30 -15 -10 0 -23 -7 -30 -15
-7 -8 -20 -15 -30 -15 -10 0 -23 -7 -30 -15 -7 -8 -27 -15 -45 -15 -18 0 -38
-7 -45 -15 -7 -8 -27 -15 -44 -15 -24 0 -42 -10 -76 -45 -34 -35 -52 -45 -76
-45 -17 0 -37 -7 -44 -15 -8 -9 -30 -15 -60 -15 -30 0 -52 -6 -60 -15 -7 -8
-20 -15 -30 -15 -10 0 -23 -7 -30 -15 -7 -8 -20 -15 -30 -15 -10 0 -23 -7 -30
-15 -7 -8 -20 -15 -30 -15 -10 0 -23 -7 -30 -15 -7 -8 -20 -15 -29 -15 -10 0
-30 -13 -46 -30 -20 -21 -38 -30 -61 -30 -17 0 -37 -7 -44 -15 -7 -8 -27 -15
-45 -15 -18 0 -38 -7 -45 -15 -7 -8 -27 -15 -45 -15 -18 0 -38 -7 -45 -15 -7
-8 -20 -15 -30 -15 -10 0 -23 -7 -30 -15 -7 -8 -20 -15 -29 -15 -10 0 -30 -13
-46 -30 -20 -21 -38 -30 -61 -30 -17 0 -37 -7 -44 -15 -7 -8 -20 -15 -30 -15
-10 0 -23 -7 -30 -15 -7 -8 -20 -15 -30 -15 -10 0 -23 -7 -30 -15 -7 -8 -20
-15 -30 -15 -10 0 -23 -7 -30 -15 -8 -9 -30 -15 -59 -15 -45 0 -49 -3 -129
-83 -79 -79 -82 -84 -82 -128 0 -55 -29 -89 -77 -89 -23 0 -39 -9 -58 -32 -25
-29 -28 -31 -40 -15 -16 22 -24 21 -41 0 -13 -17 -15 -17 -25 0 -14 24 -279
26 -299 2 -7 -8 -20 -15 -30 -15 -10 0 -23 -7 -30 -15 -7 -8 -27 -15 -45 -15
-18 0 -38 -7 -45 -15 -7 -8 -20 -15 -30 -15 -10 0 -23 -7 -30 -15 -7 -8 -27
-15 -45 -15 -18 0 -38 -7 -45 -15 -7 -8 -27 -15 -45 -15 -18 0 -38 -7 -45 -15
-7 -8 -20 -15 -29 -15 -10 0 -30 -13 -46 -30 -20 -21 -38 -30 -61 -30 -17 0
-37 -7 -44 -15 -7 -8 -20 -15 -30 -15 -10 0 -23 -7 -30 -15 -7 -8 -20 -15 -30
-15 -10 0 -23 -7 -30 -15 -7 -8 -20 -15 -30 -15 -10 0 -23 -7 -30 -15 -7 -8
-20 -15 -30 -15 -10 0 -23 -7 -30 -15 -7 -8 -27 -15 -45 -15 -18 0 -38 -7 -45
-15 -7 -8 -20 -15 -29 -15 -10 0 -30 -13 -46 -30 -20 -21 -38 -30 -61 -30 -17
0 -37 -7 -44 -15 -7 -8 -20 -15 -30 -15 -10 0 -23 -7 -30 -15 -7 -8 -20 -15
-30 -15 -10 0 -23 -7 -30 -15 -7 -8 -20 -15 -30 -15 -10 0 -23 -7 -30 -15 -7
-8 -27 -15 -45 -15 -18 0 -38 -7 -45 -15 -7 -8 -20 -15 -30 -15 -10 0 -23 -7
-30 -15 -7 -8 -20 -15 -29 -15 -10 0 -30 -13 -46 -30 -20 -21 -38 -30 -61 -30
-17 0 -37 -7 -44 -15 -7 -8 -20 -15 -30 -15 -10 0 -23 -7 -30 -15 -7 -8 -20
-15 -30 -15 -10 0 -23 -7 -30 -15 -7 -8 -27 -15 -45 -15 -18 0 -38 -7 -45 -15
-7 -8 -20 -15 -30 -15 -10 0 -23 -7 -30 -15 -7 -8 -20 -15 -29 -15 -10 0 -30
-13 -46 -30 -20 -21 -38 -30 -61 -30 -17 0 -37 -7 -44 -15 -7 -8 -20 -15 -30
-15 -10 0 -23 -7 -30 -15 -7 -8 -20 -15 -30 -15 -10 0 -23 -7 -30 -15 -7 -8
-20 -15 -30 -15 -10 0 -23 -7 -30 -15 -7 -8 -27 -15 -45 -15 -18 0 -38 -7 -45
-15 -7 -8 -20 -15 -30 -15 -10 0 -23 -7 -30 -15 -7 -8 -20 -15 -30 -15 -10 0
-23 -7 -30 -15 -7 -8 -20 -15 -30 -15 -10 0 -23 -7 -30 -15 -7 -8 -20 -15 -30
-15 -10 0 -23 -7 -30 -15 -7 -8 -20 -15 -30 -15 -10 0 -23 -7 -30 -15 -7 -8
-27 -15 -45 -15 -18 0 -38 -7 -45 -15 -7 -8 -20 -15 -30 -15 -10 0 -23 -7 -30
-15 -10 -12 -37 -15 -119 -15 -99 0 -109 -2 -129 -23 l-22 -23 0 -1411 c0
-1242 2 -1412 15 -1423 12 -10 15 -40 15 -150 0 -110 3 -140 15 -150 11 -9 15
-33 15 -92 0 -61 3 -80 15 -84 19 -8 19 -30 0 -38 -19 -7 -19 -40 0 -56 8 -7
15 -27 15 -45 0 -18 7 -38 15 -45 8 -7 15 -20 15 -29 0 -9 20 -37 45 -61 25
-24 45 -51 45 -60 0 -20 71 -90 91 -90 35 0 59 43 59 107 0 42 5 64 15 73 8 7
15 27 15 45 0 18 7 38 15 45 8 7 15 27 15 45 0 18 7 38 15 45 19 16 19 49 0
56 -19 8 -19 30 0 38 11 4 15 20 15 54 0 32 5 54 15 62 8 7 15 20 15 30 0 10
7 23 15 30 8 7 15 27 15 45 0 18 7 38 15 45 8 7 15 27 15 45 0 18 7 38 15 45
8 7 15 27 15 45 0 18 7 38 15 45 8 7 15 20 15 29 0 10 14 30 30 46 21 20 30
38 30 61 0 17 7 37 15 44 8 7 15 20 15 30 0 10 7 23 15 30 8 7 15 20 15 29 0
10 13 30 30 46 16 16 30 36 30 45 0 9 14 29 30 45 17 16 30 36 30 45 0 9 14
29 30 45 17 16 30 36 30 45 0 9 20 36 45 60 25 24 45 51 45 60 0 20 311 330
331 330 8 0 25 10 37 23 21 22 22 32 22 218 l0 195 38 37 c27 26 47 37 69 37
17 0 36 7 43 15 7 8 20 15 30 15 10 0 23 7 30 15 7 8 20 15 30 15 10 0 23 7
30 15 7 8 20 15 30 15 10 0 23 7 30 15 7 8 20 15 30 15 10 0 23 7 30 15 7 8
27 15 45 15 18 0 38 7 45 15 7 8 20 15 30 15 10 0 23 7 30 15 7 8 20 15 30 15
10 0 23 7 30 15 7 8 27 15 44 15 23 0 41 9 61 30 24 25 37 30 76 30 29 0 51 6
59 15 7 8 20 15 29 15 10 0 30 14 46 30 16 17 36 30 46 30 9 0 22 7 29 15 8 9
30 15 59 15 39 0 52 5 76 30 16 17 36 30 46 30 9 0 22 7 29 15 7 8 20 15 30
15 10 0 23 7 30 15 7 8 27 15 45 15 18 0 38 7 45 15 7 8 20 15 30 15 10 0 23
7 30 15 7 8 20 15 30 15 10 0 23 7 30 15 7 8 20 15 30 15 10 0 23 7 30 15 7 8
20 15 30 15 10 0 23 7 30 15 7 8 27 15 45 15 18 0 38 7 45 15 7 8 20 15 30 15
10 0 23 7 30 15 7 8 20 15 30 15 10 0 23 7 30 15 7 8 20 15 30 15 10 0 23 7
30 15 7 8 27 15 44 15 23 0 41 9 61 30 16 17 36 30 46 30 9 0 22 7 29 15 7 8
27 15 45 15 18 0 38 7 45 15 7 8 20 15 30 15 10 0 23 7 30 15 7 8 20 15 30 15
10 0 23 7 30 15 7 8 27 15 45 15 18 0 38 7 45 15 7 8 20 15 29 15 10 0 30 14
46 30 20 21 38 30 61 30 17 0 37 7 44 15 7 8 27 15 45 15 18 0 38 7 45 15 7 8
20 15 30 15 10 0 23 7 30 15 7 8 20 15 30 15 10 0 23 7 30 15 7 8 20 15 30 15
10 0 23 7 30 15 7 8 27 15 45 15 18 0 38 7 45 15 7 8 20 15 30 15 10 0 23 7
30 15 7 8 27 15 44 15 23 0 41 9 61 30 20 21 38 30 61 30 17 0 37 7 44 15 7 8
20 15 30 15 10 0 23 7 30 15 7 8 20 15 30 15 10 0 23 7 30 15 7 8 20 15 30 15
10 0 23 7 30 15 7 8 27 15 45 15 18 0 38 7 45 15 7 8 20 15 30 15 10 0 23 7
30 15 7 8 20 15 30 15 10 0 23 7 30 15 7 8 20 15 30 15 10 0 23 7 30 15 7 8
27 15 45 15 18 0 38 7 45 15 7 8 20 15 30 15 10 0 23 7 30 15 7 8 20 15 30 15
10 0 23 7 30 15 7 8 20 15 30 15 10 0 23 7 30 15 7 8 27 15 45 15 18 0 38 7
45 15 7 8 20 15 30 15 10 0 23 7 30 15 7 8 20 15 29 15 10 0 30 14 46 30 24
25 37 30 76 30 29 0 51 -6 59 -15 7 -8 20 -15 30 -15 10 0 23 -7 30 -15 7 -8
27 -15 45 -15 18 0 38 -7 45 -15 7 -8 20 -15 30 -15 10 0 23 -7 30 -15 7 -8
20 -15 30 -15 10 0 23 -7 30 -15 7 -8 20 -15 30 -15 10 0 23 -7 30 -15 7 -8
27 -15 44 -15 23 0 41 -9 61 -30 24 -25 37 -30 75 -30 38 0 51 -5 75 -30 16
-16 36 -30 46 -30 9 0 22 -7 29 -15 7 -8 20 -15 30 -15 10 0 23 -7 30 -15 8
-9 30 -15 59 -15 39 0 52 -5 76 -30 16 -16 36 -30 46 -30 9 0 22 -7 29 -15 7
-8 20 -15 30 -15 10 0 23 -7 30 -15 7 -8 27 -15 45 -15 18 0 38 -7 45 -15 7
-8 20 -15 30 -15 10 0 23 -7 30 -15 7 -8 20 -15 30 -15 10 0 23 -7 30 -15 7
-8 20 -15 30 -15 10 0 23 -7 30 -15 7 -8 27 -15 45 -15 18 0 38 -7 45 -15 7
-8 20 -15 30 -15 10 0 23 -7 30 -15 7 -8 20 -15 30 -15 10 0 23 -7 30 -15 7
-8 20 -15 30 -15 10 0 23 -7 30 -15 7 -8 27 -15 45 -15 18 0 38 -7 45 -15 7
-8 20 -15 30 -15 10 0 23 -7 30 -15 7 -8 20 -15 30 -15 10 0 23 -7 30 -15 7
-8 20 -15 30 -15 10 0 23 -7 30 -15 7 -8 27 -15 44 -15 23 0 41 -9 61 -30 20
-21 38 -30 61 -30 17 0 37 -7 44 -15 7 -8 20 -15 30 -15 10 0 23 -7 30 -15 7
-8 20 -15 30 -15 10 0 23 -7 30 -15 7 -8 20 -15 30 -15 10 0 23 -7 30 -15 7
-8 27 -15 45 -15 18 0 38 -7 45 -15 7 -8 20 -15 30 -15 10 0 23 -7 30 -15 7
-8 20 -15 30 -15 10 0 23 -7 30 -15 7 -8 20 -15 30 -15 10 0 23 -7 30 -15 7
-8 20 -15 30 -15 10 0 23 -7 30 -15 7 -8 27 -15 45 -15 18 0 38 -7 45 -15 7
-8 20 -15 30 -15 10 0 23 -7 30 -15 7 -8 20 -15 29 -15 10 0 30 -13 46 -30 24
-25 37 -30 76 -30 29 0 51 -6 59 -15 7 -8 20 -15 30 -15 10 0 23 -7 30 -15 7
-8 20 -15 30 -15 10 0 23 -7 30 -15 7 -8 20 -15 30 -15 10 0 23 -7 30 -15 7
-8 27 -15 44 -15 23 0 41 -9 61 -30 16 -16 36 -30 46 -30 9 0 22 -7 29 -15 7
-8 27 -15 45 -15 18 0 38 -7 45 -15 7 -8 27 -15 44 -15 23 0 41 -9 61 -30 20
-21 38 -30 61 -30 17 0 37 -7 44 -15 7 -8 20 -15 30 -15 10 0 23 -7 30 -15 7
-8 20 -15 30 -15 10 0 23 -7 30 -15 7 -8 20 -15 30 -15 10 0 23 -7 30 -15 7
-8 20 -15 30 -15 10 0 23 -7 30 -15 7 -8 20 -15 30 -15 10 0 23 -7 30 -15 7
-8 27 -15 45 -15 18 0 38 -7 45 -15 7 -8 20 -15 30 -15 10 0 23 -7 30 -15 7
-8 20 -15 29 -15 10 0 30 -13 46 -30 24 -25 37 -30 75 -30 38 0 51 -5 75 -30
16 -16 36 -30 46 -30 9 0 22 -7 29 -15 8 -9 30 -15 59 -15 39 0 52 -5 76 -30
16 -16 36 -30 46 -30 9 0 22 -7 29 -15 7 -8 20 -15 30 -15 10 0 23 -7 30 -15
7 -8 27 -15 45 -15 18 0 38 -7 45 -15 7 -8 20 -15 30 -15 10 0 23 -7 30 -15 7
-8 20 -15 30 -15 10 0 23 -7 30 -15 7 -8 20 -15 30 -15 10 0 23 -7 30 -15 7
-8 20 -15 30 -15 10 0 23 -7 30 -15 7 -8 20 -15 30 -15 10 0 23 -7 30 -15 7
-8 27 -15 45 -15 18 0 38 -7 45 -15 7 -8 20 -15 30 -15 10 0 23 -7 30 -15 7
-8 27 -15 45 -15 18 0 38 -7 45 -15 7 -8 20 -15 30 -15 10 0 23 -7 30 -15 7
-8 21 -15 32 -15 10 0 21 -7 24 -15 4 -8 10 -15 15 -15 15 0 78 74 79 91 0 9
7 22 15 29 8 7 15 20 15 29 0 10 14 30 30 46 l30 29 0 856 0 857 -23 21 c-22
21 -32 22 -218 22 l-195 0 -44 45 c-34 35 -52 45 -76 45 -17 0 -37 7 -44 15
-7 8 -20 15 -30 15 -10 0 -23 7 -30 15 -7 8 -20 15 -30 15 -10 0 -23 7 -30 15
-7 8 -20 15 -30 15 -10 0 -23 7 -30 15 -9 10 -32 15 -74 15 -60 0 -63 1 -106
45 -24 25 -52 45 -61 45 -9 0 -22 7 -29 15 -7 8 -20 15 -30 15 -10 0 -23 7
-30 15 -8 9 -30 15 -59 15 -42 0 -51 4 -91 45 -34 35 -52 45 -76 45 -17 0 -37
7 -44 15 -7 8 -27 15 -44 15 -23 0 -41 9 -61 30 -20 21 -38 30 -61 30 -17 0
-37 7 -44 15 -7 8 -20 15 -29 15 -10 0 -30 14 -46 30 -20 21 -38 30 -60 30
-22 0 -40 9 -60 30 -20 21 -38 30 -61 30 -17 0 -37 7 -44 15 -7 8 -27 15 -44
15 -23 0 -41 9 -61 30 -16 17 -36 30 -46 30 -9 0 -22 7 -29 15 -7 8 -27 15
-45 15 -18 0 -38 7 -45 15 -7 8 -20 15 -30 15 -10 0 -23 7 -30 15 -7 8 -27 15
-44 15 -23 0 -41 9 -61 30 -20 21 -38 30 -61 30 -17 0 -37 7 -44 15 -7 8 -20
15 -30 15 -10 0 -23 7 -30 15 -7 8 -20 15 -30 15 -10 0 -23 7 -30 15 -7 8 -20
15 -30 15 -10 0 -23 7 -30 15 -7 8 -20 15 -30 15 -10 0 -23 7 -30 15 -7 8 -20
15 -30 15 -10 0 -23 7 -30 15 -7 8 -20 15 -29 15 -10 0 -30 14 -46 30 -24 25
-37 30 -76 30 -29 0 -51 6 -59 15 -7 8 -20 15 -29 15 -10 0 -30 14 -46 30 -20
21 -38 30 -61 30 -17 0 -37 7 -44 15 -7 8 -27 15 -44 15 -23 0 -41 9 -61 30
-16 17 -36 30 -46 30 -9 0 -22 7 -29 15 -8 9 -30 15 -60 15 -30 0 -52 6 -60
15 -7 8 -20 15 -29 15 -10 0 -30 14 -46 30 -16 17 -36 30 -46 30 -9 0 -22 7
-29 15 -7 8 -27 15 -45 15 -18 0 -38 7 -45 15 -7 8 -20 15 -29 15 -10 0 -30
14 -46 30 -20 21 -38 30 -61 30 -17 0 -37 7 -44 15 -7 8 -20 15 -30 15 -10 0
-23 7 -30 15 -7 8 -20 15 -30 15 -10 0 -23 7 -30 15 -7 8 -27 15 -44 15 -23 0
-41 9 -61 30 -20 21 -38 30 -61 30 -17 0 -37 7 -44 15 -7 8 -27 15 -44 15 -24
0 -42 10 -76 45 -40 41 -49 45 -91 45 -29 0 -51 6 -59 15 -7 8 -20 15 -30 15
-10 0 -23 7 -30 15 -7 8 -20 15 -30 15 -10 0 -23 7 -30 15 -7 8 -20 15 -30 15
-10 0 -23 7 -30 15 -7 8 -20 15 -30 15 -10 0 -23 7 -30 15 -7 8 -20 15 -29 15
-10 0 -30 14 -46 30 -16 17 -36 30 -46 30 -9 0 -22 7 -29 15 -8 9 -30 15 -59
15 -39 0 -52 5 -76 30 -16 17 -36 30 -46 30 -9 0 -22 7 -29 15 -7 8 -27 15
-44 15 -23 0 -41 9 -61 30 -16 17 -36 30 -46 30 -9 0 -22 7 -29 15 -7 8 -27
15 -45 15 -18 0 -38 7 -45 15 -7 8 -20 15 -30 15 -10 0 -23 7 -30 15 -7 8 -20
15 -30 15 -10 0 -23 7 -30 15 -7 8 -27 15 -45 15 -18 0 -38 7 -45 15 -7 8 -27
15 -45 15 -18 0 -38 -7 -45 -15z"/><path d="M5970 10725 c-11 -13 -220 -15 -1771 -15 -1656 0 -1759 -1 -1768 -17
-9 -16 -11 -16 -31 2 -20 18 -22 18 -31 2 -7 -12 -23 -17 -58 -17 -31 0 -53
-5 -61 -15 -22 -26 -75 -19 -103 15 -14 17 -29 30 -32 30 -3 0 -18 -13 -32
-30 -21 -26 -32 -30 -73 -30 -30 0 -52 5 -60 15 -7 8 -27 15 -45 15 -18 0 -38
-7 -45 -15 -7 -8 -20 -15 -30 -15 -10 0 -23 -7 -30 -15 -7 -8 -20 -15 -30 -15
-10 0 -23 -7 -30 -15 -7 -8 -27 -15 -44 -15 -23 0 -41 -9 -61 -30 -16 -16 -36
-30 -44 -30 -21 0 -451 -431 -451 -451 0 -9 -7 -22 -15 -29 -8 -7 -15 -20 -15
-30 0 -10 -7 -23 -15 -30 -8 -7 -15 -20 -15 -30 0 -10 -7 -23 -15 -30 -8 -7
-15 -20 -15 -29 0 -10 -14 -30 -30 -46 -21 -20 -30 -38 -30 -61 0 -17 -7 -37
-15 -44 -8 -7 -15 -27 -15 -45 0 -18 -7 -38 -15 -45 -8 -7 -15 -20 -15 -30 0
-10 -7 -23 -15 -30 -8 -7 -15 -27 -15 -45 0 -18 -7 -38 -15 -45 -11 -9 -15
-35 -15 -105 0 -70 -4 -96 -15 -105 -12 -10 -15 -37 -15 -120 0 -83 -3 -110
-15 -120 -22 -18 -22 -252 0 -270 12 -10 15 -37 15 -120 0 -83 3 -110 15 -120
11 -9 15 -35 15 -105 0 -70 4 -96 15 -105 8 -7 15 -27 15 -45 0 -18 7 -38 15
-45 8 -7 15 -27 15 -45 0 -18 7 -38 15 -45 8 -7 15 -20 15 -30 0 -10 7 -23 15
-30 8 -7 15 -27 15 -45 0 -18 7 -38 15 -45 8 -7 15 -20 15 -30 0 -10 7 -23 15
-30 8 -7 15 -20 15 -30 0 -10 7 -23 15 -30 8 -7 15 -20 15 -29 0 -9 20 -37 45
-61 25 -24 45 -51 45 -60 0 -9 27 -42 60 -75 33 -33 60 -66 60 -75 0 -20 191
-210 211 -210 8 0 35 -20 59 -45 24 -25 51 -45 60 -45 9 0 36 -20 60 -45 24
-25 52 -45 61 -45 9 0 22 -7 29 -15 7 -8 20 -15 30 -15 10 0 23 -7 30 -15 7
-8 20 -15 30 -15 10 0 23 -7 30 -15 7 -8 20 -15 29 -15 10 0 30 -13 46 -30 26
-27 35 -30 91 -30 42 0 65 -5 74 -15 7 -8 27 -15 45 -15 18 0 38 -7 45 -15 7
-8 27 -15 45 -15 18 0 38 -7 45 -15 8 -10 30 -15 61 -15 35 0 51 -5 58 -17 9
-16 11 -16 31 2 20 18 22 18 31 2 9 -16 73 -17 1018 -17 884 0 1010 -2 1021
-15 7 -8 20 -15 29 -15 9 0 47 -30 84 -68 l67 -68 0 -61 c0 -42 -5 -64 -15
-73 -8 -7 -15 -20 -15 -29 0 -10 -13 -30 -30 -46 -16 -16 -30 -36 -30 -46 0
-9 -7 -22 -15 -29 -8 -7 -15 -20 -15 -30 0 -10 -7 -23 -15 -30 -8 -7 -15 -27
-15 -45 0 -18 7 -38 15 -45 20 -17 18 -40 -6 -69 -19 -23 -20 -23 -40 -5 -19
17 -21 18 -30 1 -15 -27 -2443 -27 -2458 0 -9 16 -11 16 -31 -2 -20 -18 -22
-18 -31 -2 -9 15 -30 17 -193 17 -151 0 -186 3 -196 15 -9 11 -35 15 -105 15
-70 0 -96 4 -105 15 -9 11 -33 15 -90 15 -57 0 -81 4 -90 15 -7 8 -27 15 -45
15 -18 0 -38 7 -45 15 -7 8 -27 15 -45 15 -18 0 -38 7 -45 15 -21 26 -114 17
-118 -11 -2 -12 -16 -34 -33 -49 -27 -27 -29 -34 -29 -106 0 -56 4 -80 15 -89
9 -8 15 -30 15 -60 0 -30 6 -52 15 -60 8 -7 15 -27 15 -45 0 -18 7 -38 15 -45
8 -7 15 -20 15 -29 0 -10 13 -30 30 -46 21 -20 30 -38 30 -61 0 -17 7 -37 15
-44 8 -7 15 -27 15 -44 0 -24 10 -42 45 -76 25 -24 45 -51 45 -60 0 -9 13 -29
30 -45 17 -16 30 -36 30 -45 0 -20 280 -300 301 -300 8 0 35 -20 59 -45 24
-25 51 -45 60 -45 9 0 36 -20 60 -45 24 -25 52 -45 61 -45 9 0 22 -7 29 -15 7
-8 20 -15 30 -15 10 0 23 -7 30 -15 7 -8 20 -15 30 -15 10 0 23 -7 30 -15 7
-8 20 -15 29 -15 10 0 30 -14 46 -30 16 -16 36 -30 46 -30 9 0 22 -7 29 -15 7
-8 27 -15 45 -15 18 0 38 -7 45 -15 7 -8 20 -15 30 -15 10 0 23 -7 30 -15 8
-9 30 -15 60 -15 30 0 52 -6 60 -15 7 -8 27 -15 45 -15 18 0 38 -7 45 -15 10
-12 42 -15 165 -15 123 0 155 -3 165 -15 19 -23 2021 -23 2040 0 9 11 35 15
106 15 78 0 95 3 103 17 9 16 11 16 31 -2 20 -18 22 -18 31 -2 6 11 22 17 43
17 19 0 39 7 46 15 7 8 27 15 45 15 18 0 38 7 45 15 7 8 20 15 30 15 10 0 23
7 30 15 7 8 27 15 45 15 18 0 38 7 45 15 7 8 20 15 29 15 10 0 30 14 46 30 16
17 36 30 46 30 9 0 22 7 29 15 7 8 20 15 30 15 10 0 23 7 30 15 7 8 20 15 29
15 9 0 43 27 76 60 38 38 68 60 82 60 17 0 23 6 23 23 0 29 68 97 98 97 16 0
22 6 22 23 0 15 25 48 75 97 41 41 75 82 75 90 0 9 14 29 30 45 17 16 30 36
30 46 0 9 7 22 15 29 8 7 15 20 15 30 0 10 7 23 15 30 8 7 15 20 15 30 0 10 7
23 15 30 8 7 15 27 15 45 0 18 7 38 15 45 8 7 15 20 15 30 0 10 7 23 15 30 9
8 15 30 15 60 0 30 6 52 15 60 9 8 15 30 15 60 0 30 6 52 15 60 9 8 15 30 15
60 0 30 6 52 15 60 10 9 15 32 15 75 0 43 5 66 15 75 12 10 15 40 15 152 0
114 -3 140 -15 144 -8 4 -15 12 -15 19 0 7 7 15 15 19 13 4 15 35 15 189 0
152 -3 187 -15 197 -9 8 -15 30 -15 60 0 30 -6 52 -15 60 -10 9 -15 31 -15 74
l0 61 -90 90 c-75 75 -90 95 -90 121 0 17 -7 37 -15 44 -8 7 -15 20 -15 29 0
10 -13 30 -30 46 -16 16 -30 36 -30 45 0 20 -41 60 -61 60 -20 0 -89 71 -89
92 0 8 -7 21 -15 28 -8 7 -15 20 -15 29 0 9 -20 37 -45 61 -25 24 -45 51 -45
60 0 9 -13 29 -29 45 -17 15 -31 37 -33 49 -2 16 -11 22 -39 24 -24 2 -45 13
-65 33 -15 16 -35 29 -44 29 -8 0 -42 27 -75 60 -33 33 -67 60 -76 60 -9 0
-22 7 -29 15 -7 8 -20 15 -30 15 -10 0 -23 7 -30 15 -7 8 -27 15 -45 15 -18 0
-38 7 -45 15 -7 8 -20 15 -30 15 -10 0 -23 7 -30 15 -7 8 -27 15 -45 15 -18 0
-38 7 -45 15 -7 8 -27 15 -45 15 -18 0 -38 7 -45 15 -9 11 -33 15 -90 15 -57
0 -81 4 -90 15 -11 13 -128 15 -945 15 -817 0 -934 2 -945 15 -10 12 -42 15
-165 15 -123 0 -155 3 -165 15 -8 9 -30 15 -59 15 -57 0 -88 27 -93 80 -3 32
-6 35 -38 38 -38 4 -80 36 -80 62 0 38 43 61 111 58 58 -3 64 -5 69 -28 5 -21
11 -25 45 -25 l40 0 3 67 c2 43 8 71 17 78 8 7 15 20 15 29 0 21 70 91 92 91
8 0 21 7 28 15 11 13 269 15 2239 13 l2226 -3 5 -2335 5 -2335 66 -3 c50 -2
69 1 79 13 7 8 20 15 29 15 10 0 30 13 46 30 16 17 36 30 46 30 9 0 22 7 29
15 7 8 27 15 45 15 18 0 38 7 45 15 7 8 20 15 30 15 10 0 23 7 30 15 7 8 20
15 30 15 10 0 23 7 30 15 7 8 20 15 30 15 10 0 23 7 30 15 7 8 20 15 30 15 10
0 23 7 30 15 7 8 20 15 30 15 10 0 23 7 30 15 7 8 20 15 30 15 10 0 23 7 30
15 7 8 20 15 30 15 10 0 23 7 30 15 7 8 20 15 29 15 10 0 30 13 46 30 16 16
36 30 46 30 9 0 22 7 29 15 7 8 27 15 44 15 23 0 41 9 61 30 16 16 36 30 45
30 9 0 29 13 45 30 16 16 36 30 46 30 9 0 22 7 29 15 7 8 20 15 29 15 10 0 30
13 46 30 16 17 36 30 45 30 9 0 36 20 60 45 24 25 51 45 60 45 9 0 29 13 45
30 16 17 39 30 52 30 17 0 23 6 23 23 0 13 14 36 30 52 17 16 30 36 30 46 0 9
7 22 15 29 13 11 15 234 17 1864 l3 1851 830 3 829 2 38 37 c21 20 38 45 38
54 0 9 7 22 15 29 8 7 15 20 15 30 0 10 7 23 15 30 8 7 15 27 15 45 0 18 -7
38 -15 45 -11 9 -15 33 -15 90 0 57 -4 81 -15 90 -8 7 -15 27 -15 45 0 18 -7
38 -15 45 -9 8 -15 30 -15 60 0 30 -6 52 -15 60 -8 7 -15 20 -15 30 0 10 -7
23 -15 30 -12 10 -15 38 -15 135 0 97 -3 125 -15 135 -8 7 -15 20 -15 29 0 10
-13 30 -30 46 -30 28 -30 30 -30 136 0 82 -3 109 -15 119 -10 9 -15 32 -15 75
0 43 -5 66 -15 75 -8 7 -15 27 -15 44 0 24 -10 42 -45 76 -24 24 -45 53 -47
64 -4 27 -68 35 -88 12 -19 -24 -4151 -24 -4170 -1 -7 8 -20 15 -30 15 -10 0
-23 -7 -30 -15z"/><path d="M10878 8435 c-10 -13 -18 -37 -18 -53 0 -16 -7 -35 -15 -42 -8 -7
-15 -20 -15 -30 0 -10 -7 -23 -15 -30 -8 -7 -15 -20 -15 -30 0 -10 -7 -23 -15
-30 -8 -7 -15 -21 -15 -32 0 -10 -7 -21 -15 -24 -8 -4 -15 -12 -15 -20 0 -8 7
-14 15 -14 8 0 15 -6 15 -14 0 -8 -7 -16 -15 -20 -8 -3 -15 -14 -15 -24 0 -11
-7 -25 -15 -32 -8 -7 -15 -27 -15 -45 0 -18 -7 -38 -15 -45 -8 -7 -15 -27 -15
-45 0 -18 -7 -38 -15 -45 -8 -7 -15 -27 -15 -45 0 -18 -7 -38 -15 -45 -8 -7
-15 -27 -15 -45 0 -18 -7 -38 -15 -45 -8 -7 -15 -27 -15 -45 0 -18 -7 -38 -15
-45 -8 -7 -15 -27 -15 -45 0 -18 -7 -38 -15 -45 -9 -8 -15 -30 -15 -60 0 -30
-6 -52 -15 -60 -8 -7 -15 -20 -15 -30 0 -10 -7 -23 -15 -30 -8 -7 -15 -20 -15
-30 0 -10 -7 -23 -15 -30 -8 -7 -15 -20 -15 -30 0 -10 -7 -23 -15 -30 -8 -7
-15 -27 -15 -45 0 -18 -7 -38 -15 -45 -8 -7 -15 -20 -15 -30 0 -10 -7 -23 -15
-30 -8 -7 -15 -20 -15 -30 0 -10 -7 -23 -15 -30 -8 -7 -15 -27 -15 -45 0 -18
-7 -38 -15 -45 -8 -7 -15 -20 -15 -30 0 -10 -7 -23 -15 -30 -8 -7 -15 -20 -15
-30 0 -10 -7 -23 -15 -30 -8 -7 -15 -20 -15 -30 0 -10 -7 -23 -15 -30 -8 -7
-15 -20 -15 -30 0 -10 -7 -23 -15 -30 -8 -7 -15 -20 -15 -30 0 -10 -7 -23 -15
-30 -8 -7 -15 -20 -15 -30 0 -10 -7 -23 -15 -30 -8 -7 -15 -20 -15 -29 0 -10
-13 -30 -30 -46 -16 -16 -30 -36 -30 -45 0 -9 -13 -29 -30 -45 -16 -16 -30
-36 -30 -45 0 -9 -13 -29 -30 -45 -21 -20 -30 -38 -30 -60 0 -23 -11 -41 -45
-75 -25 -24 -45 -51 -45 -60 0 -9 -13 -29 -30 -45 -16 -16 -30 -36 -30 -46 0
-9 -7 -22 -15 -29 -8 -7 -15 -20 -15 -30 0 -10 -7 -23 -15 -30 -8 -7 -15 -20
-15 -29 0 -9 -27 -43 -60 -76 -33 -33 -60 -67 -60 -75 0 -9 -13 -29 -30 -45
-16 -16 -30 -36 -30 -45 0 -9 -13 -29 -30 -45 -16 -16 -30 -36 -30 -45 0 -9
-13 -29 -30 -45 -16 -16 -30 -36 -30 -45 0 -8 -34 -49 -75 -90 -41 -41 -75
-82 -75 -91 0 -9 -7 -22 -15 -29 -8 -7 -15 -20 -15 -29 0 -10 -13 -30 -30 -46
-21 -20 -30 -38 -30 -60 0 -22 -9 -40 -30 -60 -16 -16 -30 -36 -30 -46 0 -9
-7 -22 -15 -29 -8 -7 -15 -20 -15 -29 0 -9 -20 -37 -45 -61 -25 -24 -45 -52
-45 -61 0 -9 -7 -22 -15 -29 -8 -7 -15 -23 -15 -36 0 -18 -5 -24 -23 -24 -26
0 -67 -38 -67 -61 0 -19 -131 -149 -151 -149 -19 0 -59 -41 -59 -61 0 -8 -27
-41 -60 -74 -33 -33 -60 -67 -60 -75 0 -9 -13 -29 -30 -45 -16 -16 -30 -36
-30 -45 0 -20 -101 -120 -121 -120 -19 0 -59 -41 -59 -61 0 -20 -41 -59 -62
-59 -9 0 -21 -7 -28 -15 -7 -8 -27 -15 -45 -15 -18 0 -38 -7 -45 -15 -7 -8
-20 -15 -29 -15 -20 0 -211 -190 -211 -210 0 -20 -251 -270 -270 -270 -20 0
-150 -131 -150 -151 0 -20 -71 -89 -92 -89 -8 0 -21 -7 -28 -15 -7 -8 -20 -15
-29 -15 -9 0 -43 -27 -76 -60 -38 -38 -68 -60 -82 -60 -19 0 -23 -5 -23 -30 0
-25 -4 -30 -23 -30 -26 0 -93 -64 -99 -95 -2 -15 -12 -21 -39 -23 -24 -2 -45
-13 -65 -33 -15 -16 -35 -29 -44 -29 -9 0 -36 -20 -60 -45 -24 -25 -51 -45
-60 -45 -23 0 -60 -42 -60 -68 0 -16 -6 -22 -23 -22 -14 0 -40 -18 -67 -45
-24 -25 -52 -45 -61 -45 -9 0 -22 -7 -29 -15 -7 -8 -20 -15 -30 -15 -10 0 -23
-7 -30 -15 -7 -8 -20 -15 -30 -15 -10 0 -23 -7 -30 -15 -7 -8 -20 -15 -29 -15
-9 0 -57 -40 -106 -90 -75 -75 -95 -90 -121 -90 -17 0 -37 -7 -44 -15 -7 -8
-20 -15 -29 -15 -21 0 -91 -70 -91 -91 0 -20 -41 -59 -62 -59 -9 0 -21 -7 -28
-15 -7 -8 -20 -15 -29 -15 -29 0 -89 -71 -93 -110 -3 -39 -35 -53 -58 -25 -9
10 -31 15 -74 15 -60 0 -63 1 -106 45 -24 25 -51 45 -60 45 -9 0 -42 27 -75
59 -46 48 -66 61 -94 63 -36 3 -36 3 -41 58 l-5 55 -55 5 c-51 5 -55 7 -58 33
-3 23 -8 27 -33 27 -24 0 -29 4 -29 24 0 13 -6 29 -14 36 -8 6 -16 21 -18 33
-4 29 -90 38 -118 12 -30 -27 -54 -15 -60 30 -5 38 -7 40 -45 45 -32 4 -40 10
-45 30 -5 20 -13 26 -42 28 -23 2 -45 13 -64 33 -15 16 -35 29 -44 29 -20 0
-60 41 -60 61 0 22 -43 59 -68 59 -18 0 -22 6 -22 30 0 25 -4 30 -24 30 -13 0
-29 6 -36 14 -6 8 -21 16 -33 18 -17 2 -23 11 -27 43 -4 32 -10 41 -27 43 -12
2 -27 10 -33 18 -8 8 -31 14 -59 14 -57 0 -91 29 -91 76 0 50 -35 74 -106 74
-58 0 -61 2 -104 45 -27 27 -53 45 -67 45 -19 0 -23 5 -23 30 0 25 -4 30 -23
30 -38 0 -65 38 -69 95 l-3 50 -50 3 c-27 2 -57 9 -65 17 -8 7 -24 15 -35 17
-15 2 -21 12 -23 38 -5 49 -64 110 -107 110 -40 0 -72 34 -77 80 -3 33 -6 35
-43 40 -30 4 -41 10 -43 25 -7 37 -73 95 -108 95 -17 0 -37 7 -44 15 -7 8 -23
15 -36 15 -20 0 -24 5 -24 30 0 25 -4 30 -23 30 -45 0 -66 37 -69 125 l-3 80
-50 3 c-45 3 -54 0 -80 -28 -27 -28 -33 -30 -106 -30 -56 0 -80 4 -89 15 -7 8
-27 15 -45 15 -18 0 -38 7 -45 15 -7 8 -20 15 -30 15 -10 0 -23 7 -30 15 -16
19 -44 19 -60 0 -18 -22 -106 -20 -119 2 -9 16 -11 16 -31 -2 -20 -18 -22 -18
-31 -2 -7 12 -23 17 -58 17 -31 0 -53 5 -61 15 -8 9 -30 15 -60 15 -30 0 -52
6 -60 15 -7 8 -20 15 -30 15 -10 0 -23 6 -30 14 -6 8 -28 16 -48 18 -30 2 -38
8 -40 26 -2 13 3 25 12 28 50 19 -12 63 -90 64 -54 0 -63 3 -89 30 -16 17 -36
30 -45 30 -9 0 -29 14 -45 30 -51 54 -69 40 -73 -56 -2 -63 1 -84 13 -94 10
-8 15 -29 15 -60 0 -30 6 -52 15 -60 8 -7 15 -20 15 -30 0 -10 7 -23 15 -30 8
-7 15 -20 15 -30 0 -10 7 -23 15 -30 8 -7 15 -20 15 -30 0 -10 7 -23 15 -30 8
-7 15 -20 15 -30 0 -10 7 -23 15 -30 8 -7 15 -20 15 -29 0 -10 13 -30 30 -46
16 -16 30 -36 30 -46 0 -9 7 -22 15 -29 8 -7 15 -20 15 -29 0 -10 14 -30 30
-46 16 -16 30 -36 30 -46 0 -9 7 -22 15 -29 8 -7 15 -20 15 -29 0 -9 20 -37
45 -61 25 -24 45 -51 45 -60 0 -9 14 -29 30 -45 17 -16 30 -36 30 -45 0 -9 13
-29 30 -45 17 -16 30 -36 30 -45 0 -9 20 -36 45 -60 25 -24 45 -51 45 -60 0
-8 34 -49 75 -90 41 -41 75 -82 75 -90 0 -9 27 -42 60 -75 33 -33 60 -66 60
-75 0 -9 27 -42 60 -75 33 -33 60 -66 60 -75 0 -9 27 -42 60 -75 33 -33 60
-66 60 -75 0 -20 1000 -1020 1020 -1020 9 0 62 -47 120 -105 58 -58 112 -105
120 -105 9 0 42 -27 75 -60 33 -33 66 -60 75 -60 9 0 36 -20 60 -45 24 -25 51
-45 60 -45 8 0 56 -40 105 -90 49 -49 97 -90 105 -90 9 0 36 -20 60 -45 24
-25 52 -45 61 -45 9 0 22 -7 29 -15 7 -8 20 -15 29 -15 9 0 37 -20 61 -45 24
-25 51 -45 60 -45 9 0 42 -27 75 -60 33 -33 67 -60 75 -60 9 0 29 -14 45 -30
16 -17 36 -30 45 -30 9 0 29 -13 45 -30 16 -16 36 -30 45 -30 9 0 36 -20 60
-45 24 -25 52 -45 61 -45 9 0 22 -7 29 -15 7 -8 20 -15 30 -15 10 0 23 -7 30
-15 7 -8 20 -15 30 -15 10 0 23 -7 30 -15 7 -8 20 -15 30 -15 10 0 23 -7 30
-15 7 -8 20 -15 30 -15 10 0 23 -7 30 -15 7 -8 20 -15 30 -15 10 0 23 -7 30
-15 7 -8 27 -15 45 -15 18 0 38 -7 45 -15 7 -8 20 -15 30 -15 10 0 23 -7 30
-15 8 -9 30 -15 60 -15 30 0 52 6 60 15 7 8 20 15 29 15 10 0 30 14 46 30 16
17 36 30 46 30 9 0 22 7 29 15 7 8 27 15 44 15 23 0 41 9 61 30 16 16 36 30
45 30 9 0 29 14 45 30 16 17 36 30 45 30 9 0 29 14 45 30 16 17 36 30 46 30 9
0 22 7 29 15 7 8 20 15 29 15 10 0 30 14 46 30 16 17 36 30 45 30 8 0 42 27
75 60 33 33 67 60 75 60 9 0 29 14 45 30 16 17 36 30 45 30 9 0 36 20 60 45
24 25 51 45 60 45 9 0 42 27 75 60 33 33 67 60 75 60 9 0 29 14 45 30 16 17
36 30 45 30 9 0 36 20 60 45 24 25 51 45 60 45 8 0 49 34 90 75 41 41 81 75
90 75 8 0 89 74 180 165 91 91 172 165 180 165 9 0 36 20 60 45 27 27 53 45
67 45 17 0 23 6 23 23 0 25 96 127 120 127 26 0 390 372 390 398 0 18 6 22 30
22 25 0 30 4 30 23 0 15 37 59 120 142 66 66 120 127 120 135 0 8 61 76 135
150 74 74 135 142 135 150 0 9 20 36 45 60 25 24 45 51 45 60 0 9 27 42 60 75
33 33 60 66 60 75 0 9 20 36 45 60 25 24 45 51 45 60 0 9 27 42 60 75 33 33
60 67 60 75 0 9 14 29 30 45 17 16 30 36 30 45 0 9 14 29 30 45 17 16 30 36
30 46 0 9 7 22 15 29 8 7 15 20 15 29 0 9 20 37 45 61 25 24 45 51 45 60 0 9
14 29 30 45 17 16 30 36 30 45 0 9 14 29 30 45 17 16 30 36 30 46 0 9 7 22 15
29 8 7 15 20 15 29 0 10 14 30 30 46 17 16 30 36 30 46 0 9 7 22 15 29 8 7 15
20 15 30 0 10 7 23 15 30 8 7 15 20 15 30 0 10 7 23 15 30 8 7 15 20 15 29 0
10 14 30 30 46 17 16 30 36 30 46 0 9 7 22 15 29 8 7 15 20 15 30 0 10 7 23
15 30 8 7 15 20 15 29 0 10 14 30 30 46 21 20 30 38 30 61 0 17 7 37 15 44 8
7 15 20 15 30 0 10 7 23 15 30 8 7 15 20 15 29 0 10 14 30 30 46 21 20 30 38
30 61 0 17 7 37 15 44 8 7 15 20 15 30 0 10 7 23 15 30 8 7 15 20 15 30 0 10
7 23 15 30 8 7 15 20 15 30 0 10 7 23 15 30 8 7 15 27 15 45 0 18 7 38 15 45
8 7 15 20 15 29 0 10 14 30 30 46 25 24 30 37 30 76 0 29 6 51 15 59 8 7 15
20 15 30 0 10 7 23 15 30 8 7 15 27 15 45 0 18 7 38 15 45 8 7 15 20 15 30 0
10 7 23 15 30 8 7 15 27 15 45 0 18 7 38 15 45 9 8 15 30 15 60 0 30 6 52 15
60 8 7 15 20 15 30 0 10 7 23 15 30 9 8 15 30 15 60 0 30 6 52 15 60 8 7 15
27 15 45 0 18 7 38 15 45 8 7 15 27 15 45 0 18 7 38 15 45 8 7 15 27 15 45 0
18 7 38 15 45 8 7 15 27 15 45 0 18 7 38 15 45 11 9 15 33 15 90 0 57 4 81 15
90 8 7 15 27 15 45 0 18 7 38 15 45 9 8 15 30 15 60 0 30 6 52 15 60 9 8 15
30 15 60 0 30 6 52 15 60 11 9 15 33 15 90 0 57 4 81 15 90 8 7 15 27 15 45 0
18 7 38 15 45 10 9 15 32 15 75 0 43 5 66 15 75 11 9 15 33 15 90 0 57 4 81
15 90 13 11 15 67 15 390 0 323 -2 379 -15 390 -10 9 -15 32 -15 74 0 56 -3
65 -30 91 -23 22 -30 38 -30 67 0 44 -16 49 -42 13z"/></g></svg>